<?xml version="1.0" encoding="UTF-8"?>
<svg version="1.1" xmlns="http://www.w3.org/2000/svg" width="512" height="512">
<path d="M0 0 C6.20890432 4.7037154 9.65887205 9.98438668 11.19140625 17.66015625 C11.39521488 20.38666283 11.34083515 22.92062644 11.19140625 25.66015625 C11.80161621 25.83393799 12.41182617 26.00771973 13.04052734 26.18676758 C19.09779134 27.95197102 24.96565348 29.99008183 30.81640625 32.34765625 C31.67959473 32.69505859 32.5427832 33.04246094 33.43212891 33.40039062 C41.58032433 36.73353856 49.43120302 40.51001845 57.19140625 44.66015625 C57.78614746 44.9742041 58.38088867 45.28825195 58.99365234 45.61181641 C98.96881873 66.88270268 131.22526807 103.37993297 145.19140625 146.66015625 C156.13441135 183.31986179 164.00402534 238.51406157 147.50390625 274.72265625 C142.58172932 282.98356666 135.97931305 288.42900265 126.6875 291.0390625 C114.73319446 293.16278829 102.58889875 291.58563158 90.61251831 290.36779785 C85.97420387 289.89709683 81.33400112 289.44566182 76.69335938 288.99853516 C74.55591913 288.79200335 72.41902037 288.57962374 70.28320312 288.35693359 C61.43005336 287.35924841 61.43005336 287.35924841 53.42578125 290.6171875 C51.05987321 293.16719766 49.13243431 295.77764663 47.19140625 298.66015625 C46.08947243 299.99208084 44.96553493 301.30622893 43.81640625 302.59765625 C43.25695312 303.23703125 42.6975 303.87640625 42.12109375 304.53515625 C34.7382563 312.66524445 26.82818229 319.88342663 18.19140625 326.66015625 C17.24136719 327.43875 16.29132813 328.21734375 15.3125 329.01953125 C-16.54588316 354.57133793 -58.208973 371.46705942 -99.296875 371.8984375 C-100.07408401 371.90818604 -100.85129303 371.91793457 -101.65205383 371.92797852 C-133.40046219 372.24485459 -156.15750713 367.30560142 -182.93359375 349.34765625 C-205.00975649 334.82190325 -226.6295064 325.92691358 -252.80859375 321.66015625 C-253.48180664 321.5430127 -254.15501953 321.42586914 -254.84863281 321.30517578 C-278.2496683 317.33419825 -303.65065931 317.27857181 -325.64233398 326.65625 C-331.33289034 329.02750613 -335.87346362 330.0032845 -341.765625 327.9921875 C-345.60025519 326.1434921 -348.20985717 323.66566288 -350.15234375 319.7890625 C-351.74635719 314.61800698 -351.69239924 309.0353835 -349.80859375 303.97265625 C-349.14859375 303.20953125 -348.48859375 302.44640625 -347.80859375 301.66015625 C-347.34066406 301.11617188 -346.87273437 300.5721875 -346.390625 300.01171875 C-331.41066963 283.80823501 -310.29553974 272.06008472 -292.18457031 259.70874023 C-282.90145238 253.37244573 -273.64049682 246.99628252 -264.47607422 240.48925781 C-262.68175228 239.25888439 -260.84471413 238.08883308 -258.97314453 236.97949219 C-254.0186572 234.04525857 -254.0186572 234.04525857 -250.81665039 229.44677734 C-250.2801028 226.84338245 -250.0226463 224.3091734 -249.80859375 221.66015625 C-249.48875926 219.64191344 -249.1518924 217.62631853 -248.80078125 215.61328125 C-248.62321289 214.53667236 -248.44564453 213.46006348 -248.26269531 212.35083008 C-240.69623358 167.3954569 -226.21834482 119.72566379 -195.80859375 84.66015625 C-195.0403125 83.75910156 -194.27203125 82.85804688 -193.48046875 81.9296875 C-187.77147305 75.42179146 -181.70376527 69.88377104 -174.80859375 64.66015625 C-174.28281738 64.25941895 -173.75704102 63.85868164 -173.21533203 63.44580078 C-164.21373924 56.63543767 -154.80137189 50.89469887 -144.80859375 45.66015625 C-144.18774902 45.32806152 -143.5669043 44.9959668 -142.92724609 44.65380859 C-116.81984747 30.84839744 -86.81601488 23.87428094 -57.80859375 19.66015625 C-57.56351074 18.89783691 -57.31842773 18.13551758 -57.06591797 17.35009766 C-54.1707175 8.52350143 -50.43312229 1.39145021 -42.14453125 -3.30859375 C-27.87523491 -9.60808244 -13.11019288 -8.56476485 0 0 Z M-33.80859375 13.66015625 C-34.84857741 14.9625432 -35.8568196 16.29198091 -36.80859375 17.66015625 C-36.24986572 17.6852124 -35.6911377 17.71026855 -35.11547852 17.73608398 C-32.53386947 17.8535873 -29.95249139 17.97560005 -27.37109375 18.09765625 C-26.05334961 18.15663086 -26.05334961 18.15663086 -24.70898438 18.21679688 C-19.03912113 18.48878293 -13.44410422 18.9779327 -7.80859375 19.66015625 C-9.73155814 15.43317923 -11.58980768 13.80655618 -15.80859375 11.66015625 C-22.53642153 10.16058018 -27.85429824 10.06276938 -33.80859375 13.66015625 Z M-88.80859375 69.66015625 C-89.4634375 70.24152344 -90.11828125 70.82289063 -90.79296875 71.421875 C-131.26788457 109.68030734 -149.1898511 173.18768276 -155.80859375 226.66015625 C-155.80859375 227.98015625 -155.80859375 229.30015625 -155.80859375 230.66015625 C-153.65898588 231.17641565 -151.50937569 231.69266539 -149.35975647 232.20887756 C-147.40811953 232.67754629 -145.45649016 233.14624657 -143.50486755 233.61497498 C-137.9504378 234.94881527 -132.39573197 236.28149126 -126.84057617 237.61230469 C-116.74307812 240.03188006 -106.64590471 242.45219404 -96.55738831 244.90899658 C-63.21191423 253.02935128 -29.80768712 260.78687032 4.19140625 265.66015625 C10.19542611 242.81720695 15.5866064 220.0132513 19.19140625 196.66015625 C19.45824219 194.94747559 19.45824219 194.94747559 19.73046875 193.20019531 C22.02859419 177.72888657 22.48842111 162.33555095 22.56640625 146.72265625 C22.57444275 145.83048401 22.58247925 144.93831177 22.59075928 144.019104 C22.82663668 109.56908978 16.03196944 72.9269088 -8.8203125 47.4375 C-33.75052569 23.3318433 -67.69696995 50.88465476 -88.80859375 69.66015625 Z M-171.80859375 86.66015625 C-173.10796875 87.92859375 -173.10796875 87.92859375 -174.43359375 89.22265625 C-175.21734375 90.02703125 -176.00109375 90.83140625 -176.80859375 91.66015625 C-177.35386719 92.13710937 -177.89914063 92.6140625 -178.4609375 93.10546875 C-210.89568017 122.68807658 -225.67583748 178.93009298 -230.80859375 220.66015625 C-230.83897961 222.65992541 -230.84679749 224.66052116 -230.80859375 226.66015625 C-229.82802002 226.65491943 -228.84744629 226.64968262 -227.8371582 226.64428711 C-223.26515097 226.6219568 -218.69314288 226.60799482 -214.12109375 226.59765625 C-213.30224701 226.59571259 -212.48340027 226.59376892 -211.63973999 226.59176636 C-200.91915552 226.57396268 -190.24077247 226.68922429 -179.53833008 227.39233398 C-177.63019828 227.5138543 -175.7193978 227.59261358 -173.80859375 227.66015625 C-172.04025287 225.89181537 -172.19327007 223.28131631 -171.828125 220.87890625 C-171.54110718 219.04561768 -171.54110718 219.04561768 -171.24829102 217.17529297 C-171.14654572 216.52107361 -171.04480042 215.86685425 -170.93997192 215.19281006 C-167.5518978 193.59590462 -162.6094446 172.44828176 -155.80859375 151.66015625 C-155.53885742 150.82548828 -155.26912109 149.99082031 -154.99121094 149.13085938 C-142.62533602 111.44845852 -122.9924649 78.90566424 -94.51171875 51.31494141 C-92.25305573 49.12038608 -90.02898671 46.89335917 -87.80859375 44.66015625 C-115.78427692 44.66015625 -152.75604944 67.72546273 -171.80859375 86.66015625 Z M14.19140625 45.66015625 C15.4732123 49.09442906 16.9742906 52.07199619 18.94140625 55.16015625 C27.10673706 68.61010506 32.24066798 83.17797798 35.37890625 98.53515625 C35.53375488 99.28804932 35.68860352 100.04094238 35.84814453 100.81665039 C38.76466321 115.99746336 39.60138717 131.04725325 39.56640625 146.47265625 C39.56553009 147.42591797 39.56465393 148.37917969 39.56375122 149.36132812 C39.44708326 188.2452652 32.75271704 226.3193614 22.63110352 263.80126953 C22.11467755 265.66617487 22.11467755 265.66617487 22.19140625 267.66015625 C36.32925371 269.13841839 50.45490691 270.01822834 64.64767456 270.71520996 C76.81097661 271.32237704 88.86916439 272.2890462 100.96899414 273.69506836 C114.49153204 275.57975951 114.49153204 275.57975951 127.19140625 271.66015625 C138.58167091 260.52300859 137.16694738 234.68565239 137.42822266 219.80419922 C137.63803483 178.71986731 128.99679603 138.43202008 103.19140625 105.66015625 C102.7624707 105.11166016 102.33353516 104.56316406 101.89160156 103.99804688 C80.35085542 76.75674746 47.71015975 54.95935494 14.19140625 45.66015625 Z M-226.07470703 242.65136719 C-238.12261385 242.65728608 -245.12442234 248.57861339 -254.16992188 255.65966797 C-259.11380094 259.40783091 -264.28626728 262.82483347 -269.43359375 266.28515625 C-271.58233995 267.73912722 -273.73078417 269.19354459 -275.87890625 270.6484375 C-277.40499512 271.68025146 -277.40499512 271.68025146 -278.96191406 272.73291016 C-288.30528299 279.05851516 -297.58292866 285.47668609 -306.80859375 291.97265625 C-307.83243164 292.69255737 -307.83243164 292.69255737 -308.87695312 293.42700195 C-313.58557152 296.75381841 -318.21298362 300.17907324 -322.80859375 303.66015625 C-318.78695712 304.84353066 -316.28765826 304.19467153 -312.18359375 303.22265625 C-271.58721881 295.0259319 -219.40016665 303.89233573 -184.69337463 326.46543884 C-180.68772358 329.1399118 -176.71611811 331.86143 -172.75366211 334.59936523 C-159.05987082 344.01751458 -145.48716781 351.18780292 -128.80859375 353.66015625 C-127.85726562 353.80195313 -126.9059375 353.94375 -125.92578125 354.08984375 C-78.1307598 359.31543276 -29.06042323 341.46088856 8.11572266 312.14257812 C14.71376701 306.78592291 20.95361421 301.06327152 27.00390625 295.09765625 C27.5141333 294.59685547 28.02436035 294.09605469 28.55004883 293.58007812 C30.83270149 291.27649094 32.15029954 289.78347639 33.19140625 286.66015625 C32.22275635 286.54043457 31.25410645 286.42071289 30.25610352 286.29736328 C-5.18929585 281.9024858 -39.79429903 275.84949002 -74.5078125 267.38671875 C-75.30146273 267.19328825 -76.09511295 266.99985775 -76.91281319 266.80056572 C-84.97655097 264.83354158 -93.03730079 262.855109 -101.09069061 260.84611225 C-117.27554466 256.81138147 -133.46763226 252.98011983 -149.828125 249.71875 C-150.55039024 249.57434919 -151.27265549 249.42994839 -152.01680756 249.2811718 C-163.88995078 246.92051685 -175.77720128 244.99888058 -187.80859375 243.66015625 C-189.36900391 243.46486328 -189.36900391 243.46486328 -190.9609375 243.265625 C-200.91120139 242.19493663 -211.02310173 242.39877712 -221.01513672 242.60644531 C-222.70141495 242.63886807 -224.38812981 242.65790853 -226.07470703 242.65136719 Z " fill="#000000" transform="translate(350.80859375,73.33984375)"/>
</svg>
